<svg width="340" height="104" viewBox="0 0 340 104" fill="none" xmlns="http://www.w3.org/2000/svg">
<g clip-path="url(#clip0_262_33)">
<path d="M166.518 45.9611C108.491 46.9864 51.0665 51.7166 10.3156 61.0971C7.34032 61.9941 3.27044 58.3802 1.94648 54.2678C0.622524 50.1554 2.05571 45.6285 4.62526 45.1234C46.7706 35.4141 107.319 32.7237 168.036 34.3409L166.518 45.9611ZM168.87 27.9555C107.087 26.0177 46.2873 28.4281 4.98143 37.3075C3.12801 37.7577 2.81268 41.3593 4.89302 41.0376C45.4155 31.7097 106.417 28.6005 168.586 30.1272L168.87 27.9555ZM328.445 53.4953C285.182 47.8447 225.555 45.0018 166.51 46.0259L168.027 34.4057C227.157 35.9639 286.437 41.6296 329.052 48.844C329.945 48.9607 329.898 50.1742 329.726 51.322C329.554 52.4698 329.316 53.6091 328.445 53.4953ZM168.586 30.1272C230.232 31.5855 292.997 37.7064 338.076 46.759C338.363 46.8139 338.658 46.7824 338.897 46.6714C339.136 46.5604 339.299 46.379 339.35 46.1671C339.401 45.9552 339.336 45.7302 339.17 45.5415C339.003 45.3528 338.749 45.216 338.462 45.161C293.478 36.2362 230.724 29.8531 168.87 27.9555L168.586 30.1272Z" fill="#20D59C"/>
</g>
<defs>
<clipPath id="clip0_262_33">
<rect width="334.457" height="60" fill="white" transform="translate(331.832 103.387) rotate(-172.559)"/>
</clipPath>
</defs>
</svg>
